<?xml version="1.0" encoding="utf-8" standalone="no"?>
<!DOCTYPE svg PUBLIC "-//W3C//DTD SVG 1.1//EN"
  "http://www.w3.org/Graphics/SVG/1.1/DTD/svg11.dtd">
<svg xmlns:xlink="http://www.w3.org/1999/xlink" width="608.684187pt" height="490.47625pt" viewBox="0 0 608.684187 490.47625" xmlns="http://www.w3.org/2000/svg" version="1.1">
 <metadata><rdf:RDF xmlns:dc="http://purl.org/dc/elements/1.1/" xmlns:cc="http://creativecommons.org/ns#" xmlns:rdf="http://www.w3.org/1999/02/22-rdf-syntax-ns#"><cc:Work><dc:type rdf:resource="http://purl.org/dc/dcmitype/StillImage"/><dc:format>image/svg+xml</dc:format><dc:creator><cc:Agent><dc:title>Matplotlib v3.10.8</dc:title></cc:Agent></dc:creator></cc:Work></rdf:RDF></metadata>
 <defs><style type="text/css">*{stroke-linejoin: round; stroke-linecap: butt}</style></defs>
 <g id="figure_1">
  <g id="patch_1"><path d="M 0 490.47625 L 608.684187 490.47625 L 608.684187 0 L 0 0 z" style="fill: #ffffff"/></g>
  <g id="axes_1">
   <g id="patch_2"><path d="M 61.729688 230.481621 L 595.121687 230.481621 L 595.121687 22.8 L 61.729688 22.8 z" style="fill: #ffffff"/></g>
   <g id="matplotlib.axis_1"><g id="xtick_1"><g id="line2d_1"><path d="M 61.729688 230.481621 L 61.729688 22.8" clip-path="url(#pe8fe4df359)" style="fill: none; stroke: #b0b0b0; stroke-opacity: 0.25; stroke-width: 0.8; stroke-linecap: square"/></g></g><g id="xtick_2"><g id="line2d_3"><path d="M 150.628354 230.481621 L 150.628354 22.8" clip-path="url(#pe8fe4df359)" style="fill: none; stroke: #b0b0b0; stroke-opacity: 0.25; stroke-width: 0.8; stroke-linecap: square"/></g></g><g id="xtick_3"><g id="line2d_5"><path d="M 239.527021 230.481621 L 239.527021 22.8" clip-path="url(#pe8fe4df359)" style="fill: none; stroke: #b0b0b0; stroke-opacity: 0.25; stroke-width: 0.8; stroke-linecap: square"/></g></g><g id="xtick_4"><g id="line2d_7"><path d="M 328.425687 230.481621 L 328.425687 22.8" clip-path="url(#pe8fe4df359)" style="fill: none; stroke: #b0b0b0; stroke-opacity: 0.25; stroke-width: 0.8; stroke-linecap: square"/></g></g><g id="xtick_5"><g id="line2d_9"><path d="M 417.324354 230.481621 L 417.324354 22.8" clip-path="url(#pe8fe4df359)" style="fill: none; stroke: #b0b0b0; stroke-opacity: 0.25; stroke-width: 0.8; stroke-linecap: square"/></g></g><g id="xtick_6"><g id="line2d_11"><path d="M 506.223021 230.481621 L 506.223021 22.8" clip-path="url(#pe8fe4df359)" style="fill: none; stroke: #b0b0b0; stroke-opacity: 0.25; stroke-width: 0.8; stroke-linecap: square"/></g></g><g id="xtick_7"><g id="line2d_13"><path d="M 595.121687 230.481621 L 595.121687 22.8" clip-path="url(#pe8fe4df359)" style="fill: none; stroke: #b0b0b0; stroke-opacity: 0.25; stroke-width: 0.8; stroke-linecap: square"/></g></g></g>
   <g id="matplotlib.axis_2"><g id="text_1"><text x="20.9" y="231.733983">−4000</text></g><g id="text_2"><text x="20.9" y="203.422743">−3000</text></g><g id="text_3"><text x="20.9" y="175.111504">−2000</text></g><g id="text_4"><text x="20.9" y="146.800264">−1000</text></g><g id="text_5"><text x="48.367188" y="118.489025">0</text></g><g id="text_6"><text x="35.642188" y="90.177785">1000</text></g><g id="text_7"><text x="35.642188" y="61.866546">2000</text></g><g id="text_8"><text x="35.642188" y="33.555307">3000</text></g></g>
   <g id="line2d_63"><path d="M 61.729688 115.98 L 79.509421 116.14 L 97.289154 115.73 L 115.068888 116.79 L 132.848621 114.04 L 150.628354 119.83 L 168.408087 108.15 L 186.187821 131.77 L 203.967554 84.05 L 221.747287 179.34 L 239.527021 -12.1 L 257.306754 370.7 L 275.086487 -399.6 L 292.866221 573.1 L 310.645954 -807.5 L 328.425687 1020.2 L 346.205421 -1371.8 L 363.985154 1687.0 L 381.764887 -2096.3 L 399.544621 2542.8 L 417.324354 -3074.6 L 435.104087 3720.1 L 452.883821 -4504.2 L 470.663554 5449.6 L 488.443287 -6589.3 L 506.223021 7970.1 L 524.002754 -9640.0 L 541.782488 11662.3 L 559.562221 -14108.5 L 577.341954 17056.4 L 595.121687 -20633.7" clip-path="url(#pe8fe4df359)" style="fill: none; stroke: #1f77b4; stroke-width: 1.8; stroke-linecap: square"/></g>
   <g id="text_9"><text x="61.729688" y="20">Caso D: dinámica inestable (η=0.50, s=3.00, ρ(A)=1.2899)</text></g>
   <g id="text_10"><text x="250" y="238">Brecha del producto, x_t</text></g>
   <g id="patch_3"><path d="M 61.729688 230.481621 L 61.729688 22.8" style="fill: none; stroke: #000000; stroke-width: 0.8"/></g>
   <g id="patch_4"><path d="M 595.121687 230.481621 L 595.121687 22.8" style="fill: none; stroke: #000000; stroke-width: 0.8"/></g>
  </g>
 </g>
</svg>
